<svg xmlns="http://www.w3.org/2000/svg" width="600" height="30" viewBox="0 0 600 30">
  <defs>
    <pattern id="arabesque" x="0" y="0" width="100" height="30" patternUnits="userSpaceOnUse">
      <path d="M0,15 C10,5 20,25 30,15 C40,5 50,25 60,15 C70,5 80,25 90,15 C100,5 110,25 120,15" fill="none" stroke="#e0b144" stroke-width="1.5" />
      <path d="M0,15 C15,0 30,30 45,15 C60,0 75,30 90,15" fill="none" stroke="#1c4c4c" stroke-width="0.8" stroke-opacity="0.5" />
      <circle cx="30" cy="15" r="2" fill="#e0b144" opacity="0.7" />
      <circle cx="60" cy="15" r="2" fill="#e0b144" opacity="0.7" />
      <circle cx="0" cy="15" r="2" fill="#e0b144" opacity="0.7" />
      <circle cx="90" cy="15" r="2" fill="#e0b144" opacity="0.7" />
    </pattern>
  </defs>
  <rect width="600" height="30" fill="url(#arabesque)" />
</svg>
