<?xml version="1.0" encoding="UTF-8"?>
<svg xmlns="http://www.w3.org/2000/svg" width="120" height="30" viewBox="0 0 120 30" preserveAspectRatio="none">
  <defs>
    <pattern id="elegant-arch" x="0" y="0" width="120" height="30" patternUnits="userSpaceOnUse">
      <!-- Clean, elegant Islamic arch silhouette -->
      <path d="M0,30 C20,30 25,20 30,15 C35,10 40,8 45,10 C50,12 55,10 60,15 C65,20 70,30 90,30 C95,30 100,25 105,20 C110,15 115,12 120,15 L120,30 Z" 
            fill="#1c4c4c" 
            opacity="0.15"/>
      
      <!-- Subtle accent line -->
      <path d="M0,28 C20,28 25,22 30,18 C35,14 40,12 45,14 C50,16 55,14 60,18 C65,22 70,28 90,28 C95,28 100,26 105,22 C110,18 115,16 120,18" 
            fill="none" 
            stroke="#f2b436" 
            stroke-width="1" 
            opacity="0.6"/>
      
      <!-- Minimal geometric accent points -->
      <circle cx="30" cy="18" r="1.5" fill="#f2b436" opacity="0.8"/>
      <circle cx="60" cy="18" r="1.5" fill="#f2b436" opacity="0.8"/>
      <circle cx="90" cy="28" r="1" fill="#1c4c4c" opacity="0.4"/>
    </pattern>
  </defs>
  
  <rect width="120" height="30" fill="url(#elegant-arch)" />
</svg>
