<?xml version="1.0" encoding="UTF-8"?>
<svg width="1440" height="60" viewBox="0 0 1440 60" fill="none" xmlns="http://www.w3.org/2000/svg">
  <!-- Golden geometric pattern -->
  <path d="M0 0H1440V60C1200 35 960 55 720 45C480 35 240 20 0 45V0Z" fill="#f2b436"/>
  
  <!-- Decorative Islamic geometric patterns -->
  <path d="M720 15C720 6.716 726.716 0 735 0C743.284 0 750 6.716 750 15C750 23.284 743.284 30 735 30C726.716 30 720 23.284 720 15Z" fill="#0e3147" fill-opacity="0.7"/>
  <path d="M690 15C690 6.716 696.716 0 705 0C713.284 0 720 6.716 720 15C720 23.284 713.284 30 705 30C696.716 30 690 23.284 690 15Z" fill="#0e3147" fill-opacity="0.7"/>
  
  <path d="M360 25C360 16.716 366.716 10 375 10C383.284 10 390 16.716 390 25C390 33.284 383.284 40 375 40C366.716 40 360 33.284 360 25Z" fill="#0e3147" fill-opacity="0.7"/>
  <path d="M330 25C330 16.716 336.716 10 345 10C353.284 10 360 16.716 360 25C360 33.284 353.284 40 345 40C336.716 40 330 33.284 330 25Z" fill="#0e3147" fill-opacity="0.7"/>
  
  <path d="M1080 25C1080 16.716 1086.72 10 1095 10C1103.28 10 1110 16.716 1110 25C1110 33.284 1103.28 40 1095 40C1086.72 40 1080 33.284 1080 25Z" fill="#0e3147" fill-opacity="0.7"/>
  <path d="M1050 25C1050 16.716 1056.72 10 1065 10C1073.28 10 1080 16.716 1080 25C1080 33.284 1073.28 40 1065 40C1056.72 40 1050 33.284 1050 25Z" fill="#0e3147" fill-opacity="0.7"/>
</svg>
