<svg xmlns="http://www.w3.org/2000/svg" width="100" height="100" viewBox="0 0 100 100">
  <defs>
    <pattern id="girih-tile" x="0" y="0" width="100" height="100" patternUnits="userSpaceOnUse">
      <!-- Decagon outline -->
      <path d="M50,5 L80.9,16.2 L95,45 L80.9,73.8 L50,85 L19.1,73.8 L5,45 L19.1,16.2 Z" fill="none" stroke="#1c4c4c" stroke-width="0.5" opacity="0.2" />
      
      <!-- Star pattern inside -->
      <path d="M50,15 L65.5,35 L87.5,40 L72.5,60 L77.5,82 L55,75 L35,90 L30,67.5 L10,55 L32.5,45 Z" fill="none" stroke="#e0b144" stroke-width="0.5" opacity="0.15" />
      
      <!-- Inner pattern -->
      <path d="M50,25 L62.5,40 L77.5,45 L65,60 L70,75 L50,67.5 L32.5,75 L37.5,60 L25,45 L40,40 Z" fill="none" stroke="#1c4c4c" stroke-width="0.5" opacity="0.15" />
      
      <!-- Center pattern -->
      <path d="M50,35 L57.5,45 L67.5,50 L57.5,55 L50,65 L42.5,55 L32.5,50 L42.5,45 Z" fill="none" stroke="#e0b144" stroke-width="0.5" opacity="0.2" />
      
      <!-- Center circle -->
      <circle cx="50" cy="50" r="5" fill="none" stroke="#1c4c4c" stroke-width="0.5" opacity="0.3" />
    </pattern>
  </defs>
  <rect width="100" height="100" fill="url(#girih-tile)" />
</svg>
