<svg width="120" height="40" viewBox="0 0 120 40" xmlns="http://www.w3.org/2000/svg">
  <defs>
    <pattern id="ornament" x="0" y="0" width="120" height="40" patternUnits="userSpaceOnUse">
      <!-- Central ornament -->
      <g transform="translate(60, 20)">
        <!-- Main diamond -->
        <path d="M-8,0 L0,-8 L8,0 L0,8 Z" fill="#F2B436" opacity="0.6"/>
        <path d="M-6,0 L0,-6 L6,0 L0,6 Z" fill="#F2B436" opacity="0.8"/>
        <circle cx="0" cy="0" r="3" fill="#F2B436"/>
        
        <!-- Side flourishes -->
        <path d="M-20,0 Q-15,-5 -10,0 Q-15,5 -20,0" fill="#F2B436" opacity="0.4"/>
        <path d="M20,0 Q15,-5 10,0 Q15,5 20,0" fill="#F2B436" opacity="0.4"/>
        
        <!-- Small accent dots -->
        <circle cx="-25" cy="0" r="1.5" fill="#F2B436" opacity="0.3"/>
        <circle cx="25" cy="0" r="1.5" fill="#F2B436" opacity="0.3"/>
        <circle cx="-30" cy="0" r="1" fill="#F2B436" opacity="0.2"/>
        <circle cx="30" cy="0" r="1" fill="#F2B436" opacity="0.2"/>
      </g>
    </pattern>
  </defs>
  <rect width="100%" height="100%" fill="url(#ornament)"/>
</svg>
